<svg width="375" height="293" viewBox="0 0 375 293" fill="none" xmlns="http://www.w3.org/2000/svg">
<g clip-path="url(#clip0_61_13459)">
<rect width="375" height="293" fill="white"/>
<rect y="-131" width="375" height="424" fill="#050505"/>
<rect x="12" y="5" width="38" height="32" rx="4" fill="#1464F4"/>
<g filter="url(#filter0_d_61_13459)">
<path d="M24.9955 26V17.68L25.9055 18.59H23.1755V16.9H27.1015V26H24.9955ZM29.2543 26V16.9H33.3883C34.3763 16.9 35.2473 17.0907 36.0013 17.472C36.7553 17.8447 37.3446 18.369 37.7693 19.045C38.194 19.721 38.4063 20.5227 38.4063 21.45C38.4063 22.3687 38.194 23.1703 37.7693 23.855C37.3446 24.531 36.7553 25.0597 36.0013 25.441C35.2473 25.8137 34.3763 26 33.3883 26H29.2543ZM31.3603 24.271H33.2843C33.891 24.271 34.4153 24.1583 34.8573 23.933C35.308 23.699 35.6546 23.3697 35.8973 22.945C36.1486 22.5203 36.2743 22.022 36.2743 21.45C36.2743 20.8693 36.1486 20.371 35.8973 19.955C35.6546 19.5303 35.308 19.2053 34.8573 18.98C34.4153 18.746 33.891 18.629 33.2843 18.629H31.3603V24.271Z" fill="white"/>
</g>
<path d="M87.3652 26.156C86.7325 26.156 86.1042 26.0737 85.4802 25.909C84.8648 25.7357 84.3362 25.493 83.8942 25.181L84.7262 23.569C85.0728 23.8203 85.4715 24.0197 85.9222 24.167C86.3815 24.3143 86.8452 24.388 87.3132 24.388C87.8418 24.388 88.2578 24.284 88.5612 24.076C88.8645 23.868 89.0162 23.5777 89.0162 23.205C89.0162 22.971 88.9555 22.763 88.8342 22.581C88.7128 22.399 88.4962 22.2603 88.1842 22.165C87.8808 22.0697 87.4518 22.022 86.8972 22.022H84.5702L85.0382 16.9H90.5892V18.59H85.7922L86.8842 17.628L86.5592 21.281L85.4672 20.319H87.3912C88.2925 20.319 89.0162 20.4447 89.5622 20.696C90.1168 20.9387 90.5198 21.2723 90.7712 21.697C91.0225 22.1217 91.1482 22.6027 91.1482 23.14C91.1482 23.6773 91.0138 24.1757 90.7452 24.635C90.4765 25.0857 90.0605 25.454 89.4972 25.74C88.9425 26.0173 88.2318 26.156 87.3652 26.156ZM92.5746 26V16.9H96.7086C97.6966 16.9 98.5676 17.0907 99.3216 17.472C100.076 17.8447 100.665 18.369 101.09 19.045C101.514 19.721 101.727 20.5227 101.727 21.45C101.727 22.3687 101.514 23.1703 101.09 23.855C100.665 24.531 100.076 25.0597 99.3216 25.441C98.5676 25.8137 97.6966 26 96.7086 26H92.5746ZM94.6806 24.271H96.6046C97.2113 24.271 97.7356 24.1583 98.1776 23.933C98.6283 23.699 98.9749 23.3697 99.2176 22.945C99.4689 22.5203 99.5946 22.022 99.5946 21.45C99.5946 20.8693 99.4689 20.371 99.2176 19.955C98.9749 19.5303 98.6283 19.2053 98.1776 18.98C97.7356 18.746 97.2113 18.629 96.6046 18.629H94.6806V24.271Z" fill="white"/>
<path d="M31.5922 281V273.63L31.9442 274.004H29.7772V273.3H32.3842V281H31.5922ZM37.2938 281.066C36.6998 281.066 36.1718 280.912 35.7098 280.604C35.2478 280.289 34.8848 279.841 34.6208 279.262C34.3568 278.675 34.2248 277.971 34.2248 277.15C34.2248 276.329 34.3568 275.628 34.6208 275.049C34.8848 274.462 35.2478 274.015 35.7098 273.707C36.1718 273.392 36.6998 273.234 37.2938 273.234C37.8878 273.234 38.4158 273.392 38.8778 273.707C39.3398 274.015 39.7028 274.462 39.9668 275.049C40.2382 275.628 40.3738 276.329 40.3738 277.15C40.3738 277.971 40.2382 278.675 39.9668 279.262C39.7028 279.841 39.3398 280.289 38.8778 280.604C38.4158 280.912 37.8878 281.066 37.2938 281.066ZM37.2938 280.34C37.7485 280.34 38.1445 280.219 38.4818 279.977C38.8192 279.728 39.0832 279.368 39.2738 278.899C39.4645 278.422 39.5598 277.839 39.5598 277.15C39.5598 276.461 39.4645 275.881 39.2738 275.412C39.0832 274.935 38.8192 274.576 38.4818 274.334C38.1445 274.085 37.7485 273.96 37.2938 273.96C36.8538 273.96 36.4615 274.085 36.1168 274.334C35.7722 274.576 35.5045 274.935 35.3138 275.412C35.1232 275.881 35.0278 276.461 35.0278 277.15C35.0278 277.839 35.1232 278.422 35.3138 278.899C35.5045 279.368 35.7722 279.728 36.1168 279.977C36.4615 280.219 36.8538 280.34 37.2938 280.34ZM42.102 276.369C41.9407 276.369 41.8014 276.31 41.684 276.193C41.574 276.076 41.519 275.933 41.519 275.764C41.519 275.588 41.574 275.445 41.684 275.335C41.8014 275.225 41.9407 275.17 42.102 275.17C42.2634 275.17 42.399 275.225 42.509 275.335C42.6264 275.445 42.685 275.588 42.685 275.764C42.685 275.933 42.6264 276.076 42.509 276.193C42.399 276.31 42.2634 276.369 42.102 276.369ZM42.102 281.055C41.9407 281.055 41.8014 280.996 41.684 280.879C41.574 280.762 41.519 280.619 41.519 280.45C41.519 280.274 41.574 280.131 41.684 280.021C41.8014 279.911 41.9407 279.856 42.102 279.856C42.2634 279.856 42.399 279.911 42.509 280.021C42.6264 280.131 42.685 280.274 42.685 280.45C42.685 280.619 42.6264 280.762 42.509 280.879C42.399 280.996 42.2634 281.055 42.102 281.055ZM46.9081 281.066C46.3141 281.066 45.7861 280.912 45.3241 280.604C44.8621 280.289 44.4991 279.841 44.2351 279.262C43.9711 278.675 43.8391 277.971 43.8391 277.15C43.8391 276.329 43.9711 275.628 44.2351 275.049C44.4991 274.462 44.8621 274.015 45.3241 273.707C45.7861 273.392 46.3141 273.234 46.9081 273.234C47.5021 273.234 48.0301 273.392 48.4921 273.707C48.9541 274.015 49.3171 274.462 49.5811 275.049C49.8524 275.628 49.9881 276.329 49.9881 277.15C49.9881 277.971 49.8524 278.675 49.5811 279.262C49.3171 279.841 48.9541 280.289 48.4921 280.604C48.0301 280.912 47.5021 281.066 46.9081 281.066ZM46.9081 280.34C47.3628 280.34 47.7588 280.219 48.0961 279.977C48.4334 279.728 48.6974 279.368 48.8881 278.899C49.0788 278.422 49.1741 277.839 49.1741 277.15C49.1741 276.461 49.0788 275.881 48.8881 275.412C48.6974 274.935 48.4334 274.576 48.0961 274.334C47.7588 274.085 47.3628 273.96 46.9081 273.96C46.4681 273.96 46.0758 274.085 45.7311 274.334C45.3864 274.576 45.1188 274.935 44.9281 275.412C44.7374 275.881 44.6421 276.461 44.6421 277.15C44.6421 277.839 44.7374 278.422 44.9281 278.899C45.1188 279.368 45.3864 279.728 45.7311 279.977C46.0758 280.219 46.4681 280.34 46.9081 280.34ZM54.1913 281.066C53.5973 281.066 53.0693 280.912 52.6073 280.604C52.1453 280.289 51.7823 279.841 51.5183 279.262C51.2543 278.675 51.1223 277.971 51.1223 277.15C51.1223 276.329 51.2543 275.628 51.5183 275.049C51.7823 274.462 52.1453 274.015 52.6073 273.707C53.0693 273.392 53.5973 273.234 54.1913 273.234C54.7853 273.234 55.3133 273.392 55.7753 273.707C56.2373 274.015 56.6003 274.462 56.8643 275.049C57.1356 275.628 57.2713 276.329 57.2713 277.15C57.2713 277.971 57.1356 278.675 56.8643 279.262C56.6003 279.841 56.2373 280.289 55.7753 280.604C55.3133 280.912 54.7853 281.066 54.1913 281.066ZM54.1913 280.34C54.646 280.34 55.042 280.219 55.3793 279.977C55.7166 279.728 55.9806 279.368 56.1713 278.899C56.362 278.422 56.4573 277.839 56.4573 277.15C56.4573 276.461 56.362 275.881 56.1713 275.412C55.9806 274.935 55.7166 274.576 55.3793 274.334C55.042 274.085 54.646 273.96 54.1913 273.96C53.7513 273.96 53.359 274.085 53.0143 274.334C52.6696 274.576 52.402 274.935 52.2113 275.412C52.0206 275.881 51.9253 276.461 51.9253 277.15C51.9253 277.839 52.0206 278.422 52.2113 278.899C52.402 279.368 52.6696 279.728 53.0143 279.977C53.359 280.219 53.7513 280.34 54.1913 280.34ZM62.5415 281V279.724L62.5085 279.515V277.381C62.5085 276.89 62.3692 276.512 62.0905 276.248C61.8192 275.984 61.4122 275.852 60.8695 275.852C60.4955 275.852 60.1398 275.914 59.8025 276.039C59.4652 276.164 59.1792 276.329 58.9445 276.534L58.5925 275.951C58.8858 275.702 59.2378 275.511 59.6485 275.379C60.0592 275.24 60.4918 275.17 60.9465 275.17C61.6945 275.17 62.2702 275.357 62.6735 275.731C63.0842 276.098 63.2895 276.659 63.2895 277.414V281H62.5415ZM60.5505 281.055C60.1178 281.055 59.7402 280.985 59.4175 280.846C59.1022 280.699 58.8602 280.501 58.6915 280.252C58.5228 279.995 58.4385 279.702 58.4385 279.372C58.4385 279.071 58.5082 278.8 58.6475 278.558C58.7942 278.309 59.0288 278.111 59.3515 277.964C59.6815 277.81 60.1215 277.733 60.6715 277.733H62.6625V278.316H60.6935C60.1362 278.316 59.7475 278.415 59.5275 278.613C59.3148 278.811 59.2085 279.057 59.2085 279.35C59.2085 279.68 59.3368 279.944 59.5935 280.142C59.8502 280.34 60.2095 280.439 60.6715 280.439C61.1115 280.439 61.4892 280.34 61.8045 280.142C62.1272 279.937 62.3618 279.643 62.5085 279.262L62.6845 279.801C62.5378 280.182 62.2812 280.487 61.9145 280.714C61.5552 280.941 61.1005 281.055 60.5505 281.055Z" fill="white"/>
<path d="M125.624 281V273.63L125.976 274.004H123.809V273.3H126.416V281H125.624ZM128.114 281V280.439L131.315 277.304C131.608 277.018 131.828 276.769 131.975 276.556C132.122 276.336 132.221 276.131 132.272 275.94C132.323 275.749 132.349 275.57 132.349 275.401C132.349 274.954 132.195 274.602 131.887 274.345C131.586 274.088 131.139 273.96 130.545 273.96C130.09 273.96 129.687 274.03 129.335 274.169C128.99 274.308 128.693 274.525 128.444 274.818L127.883 274.334C128.184 273.982 128.569 273.711 129.038 273.52C129.507 273.329 130.032 273.234 130.611 273.234C131.132 273.234 131.583 273.318 131.964 273.487C132.345 273.648 132.639 273.887 132.844 274.202C133.057 274.517 133.163 274.888 133.163 275.313C133.163 275.562 133.126 275.808 133.053 276.05C132.987 276.292 132.862 276.549 132.679 276.82C132.503 277.084 132.243 277.385 131.898 277.722L128.961 280.604L128.741 280.296H133.515V281H128.114ZM135.103 276.369C134.942 276.369 134.802 276.31 134.685 276.193C134.575 276.076 134.52 275.933 134.52 275.764C134.52 275.588 134.575 275.445 134.685 275.335C134.802 275.225 134.942 275.17 135.103 275.17C135.264 275.17 135.4 275.225 135.51 275.335C135.627 275.445 135.686 275.588 135.686 275.764C135.686 275.933 135.627 276.076 135.51 276.193C135.4 276.31 135.264 276.369 135.103 276.369ZM135.103 281.055C134.942 281.055 134.802 280.996 134.685 280.879C134.575 280.762 134.52 280.619 134.52 280.45C134.52 280.274 134.575 280.131 134.685 280.021C134.802 279.911 134.942 279.856 135.103 279.856C135.264 279.856 135.4 279.911 135.51 280.021C135.627 280.131 135.686 280.274 135.686 280.45C135.686 280.619 135.627 280.762 135.51 280.879C135.4 280.996 135.264 281.055 135.103 281.055ZM139.909 281.066C139.315 281.066 138.787 280.912 138.325 280.604C137.863 280.289 137.5 279.841 137.236 279.262C136.972 278.675 136.84 277.971 136.84 277.15C136.84 276.329 136.972 275.628 137.236 275.049C137.5 274.462 137.863 274.015 138.325 273.707C138.787 273.392 139.315 273.234 139.909 273.234C140.503 273.234 141.031 273.392 141.493 273.707C141.955 274.015 142.318 274.462 142.582 275.049C142.853 275.628 142.989 276.329 142.989 277.15C142.989 277.971 142.853 278.675 142.582 279.262C142.318 279.841 141.955 280.289 141.493 280.604C141.031 280.912 140.503 281.066 139.909 281.066ZM139.909 280.34C140.364 280.34 140.76 280.219 141.097 279.977C141.434 279.728 141.698 279.368 141.889 278.899C142.08 278.422 142.175 277.839 142.175 277.15C142.175 276.461 142.08 275.881 141.889 275.412C141.698 274.935 141.434 274.576 141.097 274.334C140.76 274.085 140.364 273.96 139.909 273.96C139.469 273.96 139.077 274.085 138.732 274.334C138.387 274.576 138.12 274.935 137.929 275.412C137.738 275.881 137.643 276.461 137.643 277.15C137.643 277.839 137.738 278.422 137.929 278.899C138.12 279.368 138.387 279.728 138.732 279.977C139.077 280.219 139.469 280.34 139.909 280.34ZM147.192 281.066C146.598 281.066 146.07 280.912 145.608 280.604C145.146 280.289 144.783 279.841 144.519 279.262C144.255 278.675 144.123 277.971 144.123 277.15C144.123 276.329 144.255 275.628 144.519 275.049C144.783 274.462 145.146 274.015 145.608 273.707C146.07 273.392 146.598 273.234 147.192 273.234C147.786 273.234 148.314 273.392 148.776 273.707C149.238 274.015 149.601 274.462 149.865 275.049C150.137 275.628 150.272 276.329 150.272 277.15C150.272 277.971 150.137 278.675 149.865 279.262C149.601 279.841 149.238 280.289 148.776 280.604C148.314 280.912 147.786 281.066 147.192 281.066ZM147.192 280.34C147.647 280.34 148.043 280.219 148.38 279.977C148.718 279.728 148.982 279.368 149.172 278.899C149.363 278.422 149.458 277.839 149.458 277.15C149.458 276.461 149.363 275.881 149.172 275.412C148.982 274.935 148.718 274.576 148.38 274.334C148.043 274.085 147.647 273.96 147.192 273.96C146.752 273.96 146.36 274.085 146.015 274.334C145.671 274.576 145.403 274.935 145.212 275.412C145.022 275.881 144.926 276.461 144.926 277.15C144.926 277.839 145.022 278.422 145.212 278.899C145.403 279.368 145.671 279.728 146.015 279.977C146.36 280.219 146.752 280.34 147.192 280.34ZM154.904 281.055C154.406 281.055 153.955 280.941 153.551 280.714C153.148 280.479 152.825 280.146 152.583 279.713C152.349 279.273 152.231 278.738 152.231 278.107C152.231 277.476 152.349 276.945 152.583 276.512C152.818 276.072 153.137 275.738 153.54 275.511C153.944 275.284 154.398 275.17 154.904 275.17C155.454 275.17 155.946 275.295 156.378 275.544C156.818 275.786 157.163 276.131 157.412 276.578C157.662 277.018 157.786 277.528 157.786 278.107C157.786 278.694 157.662 279.207 157.412 279.647C157.163 280.087 156.818 280.432 156.378 280.681C155.946 280.93 155.454 281.055 154.904 281.055ZM151.923 283.134V275.225H152.671V276.963L152.594 278.118L152.704 279.284V283.134H151.923ZM154.849 280.362C155.26 280.362 155.627 280.27 155.949 280.087C156.272 279.896 156.529 279.632 156.719 279.295C156.91 278.95 157.005 278.554 157.005 278.107C157.005 277.66 156.91 277.267 156.719 276.93C156.529 276.593 156.272 276.329 155.949 276.138C155.627 275.947 155.26 275.852 154.849 275.852C154.439 275.852 154.068 275.947 153.738 276.138C153.416 276.329 153.159 276.593 152.968 276.93C152.785 277.267 152.693 277.66 152.693 278.107C152.693 278.554 152.785 278.95 152.968 279.295C153.159 279.632 153.416 279.896 153.738 280.087C154.068 280.27 154.439 280.362 154.849 280.362Z" fill="white"/>
<path d="M220.127 281V280.439L223.328 277.304C223.621 277.018 223.841 276.769 223.988 276.556C224.134 276.336 224.233 276.131 224.285 275.94C224.336 275.749 224.362 275.57 224.362 275.401C224.362 274.954 224.208 274.602 223.9 274.345C223.599 274.088 223.152 273.96 222.558 273.96C222.103 273.96 221.7 274.03 221.348 274.169C221.003 274.308 220.706 274.525 220.457 274.818L219.896 274.334C220.196 273.982 220.581 273.711 221.051 273.52C221.52 273.329 222.044 273.234 222.624 273.234C223.144 273.234 223.595 273.318 223.977 273.487C224.358 273.648 224.651 273.887 224.857 274.202C225.069 274.517 225.176 274.888 225.176 275.313C225.176 275.562 225.139 275.808 225.066 276.05C225 276.292 224.875 276.549 224.692 276.82C224.516 277.084 224.255 277.385 223.911 277.722L220.974 280.604L220.754 280.296H225.528V281H220.127ZM227.116 276.369C226.954 276.369 226.815 276.31 226.698 276.193C226.588 276.076 226.533 275.933 226.533 275.764C226.533 275.588 226.588 275.445 226.698 275.335C226.815 275.225 226.954 275.17 227.116 275.17C227.277 275.17 227.413 275.225 227.523 275.335C227.64 275.445 227.699 275.588 227.699 275.764C227.699 275.933 227.64 276.076 227.523 276.193C227.413 276.31 227.277 276.369 227.116 276.369ZM227.116 281.055C226.954 281.055 226.815 280.996 226.698 280.879C226.588 280.762 226.533 280.619 226.533 280.45C226.533 280.274 226.588 280.131 226.698 280.021C226.815 279.911 226.954 279.856 227.116 279.856C227.277 279.856 227.413 279.911 227.523 280.021C227.64 280.131 227.699 280.274 227.699 280.45C227.699 280.619 227.64 280.762 227.523 280.879C227.413 280.996 227.277 281.055 227.116 281.055ZM231.922 281.066C231.328 281.066 230.8 280.912 230.338 280.604C229.876 280.289 229.513 279.841 229.249 279.262C228.985 278.675 228.853 277.971 228.853 277.15C228.853 276.329 228.985 275.628 229.249 275.049C229.513 274.462 229.876 274.015 230.338 273.707C230.8 273.392 231.328 273.234 231.922 273.234C232.516 273.234 233.044 273.392 233.506 273.707C233.968 274.015 234.331 274.462 234.595 275.049C234.866 275.628 235.002 276.329 235.002 277.15C235.002 277.971 234.866 278.675 234.595 279.262C234.331 279.841 233.968 280.289 233.506 280.604C233.044 280.912 232.516 281.066 231.922 281.066ZM231.922 280.34C232.376 280.34 232.772 280.219 233.11 279.977C233.447 279.728 233.711 279.368 233.902 278.899C234.092 278.422 234.188 277.839 234.188 277.15C234.188 276.461 234.092 275.881 233.902 275.412C233.711 274.935 233.447 274.576 233.11 274.334C232.772 274.085 232.376 273.96 231.922 273.96C231.482 273.96 231.089 274.085 230.745 274.334C230.4 274.576 230.132 274.935 229.942 275.412C229.751 275.881 229.656 276.461 229.656 277.15C229.656 277.839 229.751 278.422 229.942 278.899C230.132 279.368 230.4 279.728 230.745 279.977C231.089 280.219 231.482 280.34 231.922 280.34ZM239.205 281.066C238.611 281.066 238.083 280.912 237.621 280.604C237.159 280.289 236.796 279.841 236.532 279.262C236.268 278.675 236.136 277.971 236.136 277.15C236.136 276.329 236.268 275.628 236.532 275.049C236.796 274.462 237.159 274.015 237.621 273.707C238.083 273.392 238.611 273.234 239.205 273.234C239.799 273.234 240.327 273.392 240.789 273.707C241.251 274.015 241.614 274.462 241.878 275.049C242.149 275.628 242.285 276.329 242.285 277.15C242.285 277.971 242.149 278.675 241.878 279.262C241.614 279.841 241.251 280.289 240.789 280.604C240.327 280.912 239.799 281.066 239.205 281.066ZM239.205 280.34C239.66 280.34 240.056 280.219 240.393 279.977C240.73 279.728 240.994 279.368 241.185 278.899C241.376 278.422 241.471 277.839 241.471 277.15C241.471 276.461 241.376 275.881 241.185 275.412C240.994 274.935 240.73 274.576 240.393 274.334C240.056 274.085 239.66 273.96 239.205 273.96C238.765 273.96 238.373 274.085 238.028 274.334C237.683 274.576 237.416 274.935 237.225 275.412C237.034 275.881 236.939 276.461 236.939 277.15C236.939 277.839 237.034 278.422 237.225 278.899C237.416 279.368 237.683 279.728 238.028 279.977C238.373 280.219 238.765 280.34 239.205 280.34ZM246.917 281.055C246.419 281.055 245.968 280.941 245.564 280.714C245.161 280.479 244.838 280.146 244.596 279.713C244.362 279.273 244.244 278.738 244.244 278.107C244.244 277.476 244.362 276.945 244.596 276.512C244.831 276.072 245.15 275.738 245.553 275.511C245.957 275.284 246.411 275.17 246.917 275.17C247.467 275.17 247.959 275.295 248.391 275.544C248.831 275.786 249.176 276.131 249.425 276.578C249.675 277.018 249.799 277.528 249.799 278.107C249.799 278.694 249.675 279.207 249.425 279.647C249.176 280.087 248.831 280.432 248.391 280.681C247.959 280.93 247.467 281.055 246.917 281.055ZM243.936 283.134V275.225H244.684V276.963L244.607 278.118L244.717 279.284V283.134H243.936ZM246.862 280.362C247.273 280.362 247.64 280.27 247.962 280.087C248.285 279.896 248.542 279.632 248.732 279.295C248.923 278.95 249.018 278.554 249.018 278.107C249.018 277.66 248.923 277.267 248.732 276.93C248.542 276.593 248.285 276.329 247.962 276.138C247.64 275.947 247.273 275.852 246.862 275.852C246.452 275.852 246.081 275.947 245.751 276.138C245.429 276.329 245.172 276.593 244.981 276.93C244.798 277.267 244.706 277.66 244.706 278.107C244.706 278.554 244.798 278.95 244.981 279.295C245.172 279.632 245.429 279.896 245.751 280.087C246.081 280.27 246.452 280.362 246.862 280.362Z" fill="white"/>
<path d="M313.095 278.976V278.404L317.176 273.3H318.056L314.008 278.404L313.579 278.272H319.772V278.976H313.095ZM317.44 281V278.976L317.462 278.272V276.49H318.232V281H317.44ZM321.158 276.369C320.997 276.369 320.858 276.31 320.74 276.193C320.63 276.076 320.575 275.933 320.575 275.764C320.575 275.588 320.63 275.445 320.74 275.335C320.858 275.225 320.997 275.17 321.158 275.17C321.32 275.17 321.455 275.225 321.565 275.335C321.683 275.445 321.741 275.588 321.741 275.764C321.741 275.933 321.683 276.076 321.565 276.193C321.455 276.31 321.32 276.369 321.158 276.369ZM321.158 281.055C320.997 281.055 320.858 280.996 320.74 280.879C320.63 280.762 320.575 280.619 320.575 280.45C320.575 280.274 320.63 280.131 320.74 280.021C320.858 279.911 320.997 279.856 321.158 279.856C321.32 279.856 321.455 279.911 321.565 280.021C321.683 280.131 321.741 280.274 321.741 280.45C321.741 280.619 321.683 280.762 321.565 280.879C321.455 280.996 321.32 281.055 321.158 281.055ZM325.964 281.066C325.37 281.066 324.842 280.912 324.38 280.604C323.918 280.289 323.555 279.841 323.291 279.262C323.027 278.675 322.895 277.971 322.895 277.15C322.895 276.329 323.027 275.628 323.291 275.049C323.555 274.462 323.918 274.015 324.38 273.707C324.842 273.392 325.37 273.234 325.964 273.234C326.558 273.234 327.086 273.392 327.548 273.707C328.01 274.015 328.373 274.462 328.637 275.049C328.909 275.628 329.044 276.329 329.044 277.15C329.044 277.971 328.909 278.675 328.637 279.262C328.373 279.841 328.01 280.289 327.548 280.604C327.086 280.912 326.558 281.066 325.964 281.066ZM325.964 280.34C326.419 280.34 326.815 280.219 327.152 279.977C327.49 279.728 327.754 279.368 327.944 278.899C328.135 278.422 328.23 277.839 328.23 277.15C328.23 276.461 328.135 275.881 327.944 275.412C327.754 274.935 327.49 274.576 327.152 274.334C326.815 274.085 326.419 273.96 325.964 273.96C325.524 273.96 325.132 274.085 324.787 274.334C324.443 274.576 324.175 274.935 323.984 275.412C323.794 275.881 323.698 276.461 323.698 277.15C323.698 277.839 323.794 278.422 323.984 278.899C324.175 279.368 324.443 279.728 324.787 279.977C325.132 280.219 325.524 280.34 325.964 280.34ZM333.247 281.066C332.653 281.066 332.125 280.912 331.663 280.604C331.201 280.289 330.838 279.841 330.574 279.262C330.31 278.675 330.178 277.971 330.178 277.15C330.178 276.329 330.31 275.628 330.574 275.049C330.838 274.462 331.201 274.015 331.663 273.707C332.125 273.392 332.653 273.234 333.247 273.234C333.841 273.234 334.369 273.392 334.831 273.707C335.293 274.015 335.656 274.462 335.92 275.049C336.192 275.628 336.327 276.329 336.327 277.15C336.327 277.971 336.192 278.675 335.92 279.262C335.656 279.841 335.293 280.289 334.831 280.604C334.369 280.912 333.841 281.066 333.247 281.066ZM333.247 280.34C333.702 280.34 334.098 280.219 334.435 279.977C334.773 279.728 335.037 279.368 335.227 278.899C335.418 278.422 335.513 277.839 335.513 277.15C335.513 276.461 335.418 275.881 335.227 275.412C335.037 274.935 334.773 274.576 334.435 274.334C334.098 274.085 333.702 273.96 333.247 273.96C332.807 273.96 332.415 274.085 332.07 274.334C331.726 274.576 331.458 274.935 331.267 275.412C331.077 275.881 330.981 276.461 330.981 277.15C330.981 277.839 331.077 278.422 331.267 278.899C331.458 279.368 331.726 279.728 332.07 279.977C332.415 280.219 332.807 280.34 333.247 280.34ZM340.96 281.055C340.461 281.055 340.01 280.941 339.607 280.714C339.203 280.479 338.881 280.146 338.639 279.713C338.404 279.273 338.287 278.738 338.287 278.107C338.287 277.476 338.404 276.945 338.639 276.512C338.873 276.072 339.192 275.738 339.596 275.511C339.999 275.284 340.454 275.17 340.96 275.17C341.51 275.17 342.001 275.295 342.434 275.544C342.874 275.786 343.218 276.131 343.468 276.578C343.717 277.018 343.842 277.528 343.842 278.107C343.842 278.694 343.717 279.207 343.468 279.647C343.218 280.087 342.874 280.432 342.434 280.681C342.001 280.93 341.51 281.055 340.96 281.055ZM337.979 283.134V275.225H338.727V276.963L338.65 278.118L338.76 279.284V283.134H337.979ZM340.905 280.362C341.315 280.362 341.682 280.27 342.005 280.087C342.327 279.896 342.584 279.632 342.775 279.295C342.965 278.95 343.061 278.554 343.061 278.107C343.061 277.66 342.965 277.267 342.775 276.93C342.584 276.593 342.327 276.329 342.005 276.138C341.682 275.947 341.315 275.852 340.905 275.852C340.494 275.852 340.124 275.947 339.794 276.138C339.471 276.329 339.214 276.593 339.024 276.93C338.84 277.267 338.749 277.66 338.749 278.107C338.749 278.554 338.84 278.95 339.024 279.295C339.214 279.632 339.471 279.896 339.794 280.087C340.124 280.27 340.494 280.362 340.905 280.362Z" fill="white"/>
<path d="M338.581 86.32V75.98H339.131V86.32H338.581ZM338.812 85.066C338.24 85.066 337.69 84.9743 337.162 84.791C336.641 84.6003 336.238 84.3583 335.952 84.065L336.271 83.438C336.542 83.702 336.905 83.9257 337.36 84.109C337.822 84.285 338.306 84.373 338.812 84.373C339.296 84.373 339.688 84.3143 339.989 84.197C340.297 84.0723 340.521 83.9073 340.66 83.702C340.807 83.4967 340.88 83.2693 340.88 83.02C340.88 82.7193 340.792 82.4773 340.616 82.294C340.447 82.1107 340.224 81.9677 339.945 81.865C339.666 81.755 339.358 81.6597 339.021 81.579C338.684 81.4983 338.346 81.414 338.009 81.326C337.672 81.2307 337.36 81.106 337.074 80.952C336.795 80.798 336.568 80.5963 336.392 80.347C336.223 80.0903 336.139 79.7567 336.139 79.346C336.139 78.9647 336.238 78.6163 336.436 78.301C336.641 77.9783 336.953 77.7217 337.371 77.531C337.789 77.333 338.324 77.234 338.977 77.234C339.41 77.234 339.839 77.2963 340.264 77.421C340.689 77.5383 341.056 77.7033 341.364 77.916L341.089 78.565C340.759 78.345 340.407 78.1837 340.033 78.081C339.666 77.9783 339.311 77.927 338.966 77.927C338.504 77.927 338.123 77.9893 337.822 78.114C337.521 78.2387 337.298 78.4073 337.151 78.62C337.012 78.8253 336.942 79.06 336.942 79.324C336.942 79.6247 337.026 79.8667 337.195 80.05C337.371 80.2333 337.598 80.3763 337.877 80.479C338.163 80.5817 338.475 80.6733 338.812 80.754C339.149 80.8347 339.483 80.9227 339.813 81.018C340.15 81.1133 340.458 81.238 340.737 81.392C341.023 81.5387 341.25 81.7367 341.419 81.986C341.595 82.2353 341.683 82.5617 341.683 82.965C341.683 83.339 341.58 83.6873 341.375 84.01C341.17 84.3253 340.854 84.582 340.429 84.78C340.011 84.9707 339.472 85.066 338.812 85.066ZM344.009 85V77.63L344.361 78.004H342.194V77.3H344.801V85H344.009ZM346.686 86.606L347.17 84.571L347.258 85.044C347.089 85.044 346.946 84.989 346.829 84.879C346.719 84.769 346.664 84.626 346.664 84.45C346.664 84.274 346.719 84.131 346.829 84.021C346.946 83.911 347.085 83.856 347.247 83.856C347.415 83.856 347.551 83.9147 347.654 84.032C347.764 84.1493 347.819 84.2887 347.819 84.45C347.819 84.5087 347.815 84.5673 347.808 84.626C347.8 84.6847 347.786 84.7507 347.764 84.824C347.742 84.8973 347.712 84.9853 347.676 85.088L347.214 86.606H346.686ZM351.371 77.234C352.053 77.234 352.629 77.388 353.098 77.696C353.567 77.9967 353.923 78.433 354.165 79.005C354.407 79.577 354.528 80.27 354.528 81.084C354.528 81.9493 354.378 82.679 354.077 83.273C353.784 83.867 353.373 84.3143 352.845 84.615C352.317 84.9157 351.705 85.066 351.008 85.066C350.663 85.066 350.333 85.033 350.018 84.967C349.71 84.901 349.431 84.7947 349.182 84.648L349.501 84.01C349.699 84.142 349.926 84.2373 350.183 84.296C350.447 84.3473 350.718 84.373 350.997 84.373C351.826 84.373 352.486 84.109 352.977 83.581C353.476 83.053 353.725 82.2647 353.725 81.216C353.725 81.0473 353.714 80.8457 353.692 80.611C353.677 80.3763 353.637 80.1417 353.571 79.907L353.846 80.116C353.773 80.4973 353.615 80.8237 353.373 81.095C353.138 81.359 352.845 81.5607 352.493 81.7C352.148 81.8393 351.763 81.909 351.338 81.909C350.832 81.909 350.381 81.8137 349.985 81.623C349.596 81.4323 349.292 81.1647 349.072 80.82C348.852 80.4753 348.742 80.0683 348.742 79.599C348.742 79.115 348.856 78.697 349.083 78.345C349.31 77.993 349.622 77.7217 350.018 77.531C350.421 77.333 350.872 77.234 351.371 77.234ZM351.404 77.905C351.037 77.905 350.711 77.9747 350.425 78.114C350.146 78.246 349.926 78.4367 349.765 78.686C349.604 78.9353 349.523 79.2323 349.523 79.577C349.523 80.083 349.695 80.4863 350.04 80.787C350.392 81.0877 350.865 81.238 351.459 81.238C351.855 81.238 352.2 81.1647 352.493 81.018C352.794 80.8713 353.025 80.6697 353.186 80.413C353.355 80.1563 353.439 79.8703 353.439 79.555C353.439 79.269 353.362 79.0013 353.208 78.752C353.054 78.5027 352.827 78.301 352.526 78.147C352.225 77.9857 351.851 77.905 351.404 77.905ZM355.533 85V84.439L358.734 81.304C359.027 81.018 359.247 80.7687 359.394 80.556C359.541 80.336 359.64 80.1307 359.691 79.94C359.742 79.7493 359.768 79.5697 359.768 79.401C359.768 78.9537 359.614 78.6017 359.306 78.345C359.005 78.0883 358.558 77.96 357.964 77.96C357.509 77.96 357.106 78.0297 356.754 78.169C356.409 78.3083 356.112 78.5247 355.863 78.818L355.302 78.334C355.603 77.982 355.988 77.7107 356.457 77.52C356.926 77.3293 357.451 77.234 358.03 77.234C358.551 77.234 359.002 77.3183 359.383 77.487C359.764 77.6483 360.058 77.8867 360.263 78.202C360.476 78.5173 360.582 78.8877 360.582 79.313C360.582 79.5623 360.545 79.808 360.472 80.05C360.406 80.292 360.281 80.5487 360.098 80.82C359.922 81.084 359.662 81.3847 359.317 81.722L356.38 84.604L356.16 84.296H360.934V85H355.533ZM364.227 85.066C363.67 85.066 363.142 84.978 362.643 84.802C362.152 84.6187 361.756 84.3767 361.455 84.076L361.84 83.449C362.089 83.7057 362.423 83.9183 362.841 84.087C363.266 84.2557 363.728 84.34 364.227 84.34C364.865 84.34 365.353 84.2007 365.69 83.922C366.035 83.6433 366.207 83.2693 366.207 82.8C366.207 82.3307 366.038 81.9567 365.701 81.678C365.371 81.3993 364.847 81.26 364.128 81.26H363.578V80.677L365.954 77.696L366.064 78.004H361.774V77.3H366.724V77.861L364.348 80.842L363.963 80.589H364.26C365.184 80.589 365.873 80.7943 366.328 81.205C366.79 81.6157 367.021 82.1437 367.021 82.789C367.021 83.2217 366.918 83.6103 366.713 83.955C366.508 84.2997 366.196 84.571 365.778 84.769C365.367 84.967 364.85 85.066 364.227 85.066Z" fill="white"/>
<path d="M339.317 131.32V120.98H339.867V131.32H339.317ZM339.548 130.066C338.976 130.066 338.426 129.974 337.898 129.791C337.377 129.6 336.974 129.358 336.688 129.065L337.007 128.438C337.278 128.702 337.641 128.926 338.096 129.109C338.558 129.285 339.042 129.373 339.548 129.373C340.032 129.373 340.424 129.314 340.725 129.197C341.033 129.072 341.257 128.907 341.396 128.702C341.543 128.497 341.616 128.269 341.616 128.02C341.616 127.719 341.528 127.477 341.352 127.294C341.183 127.111 340.96 126.968 340.681 126.865C340.402 126.755 340.094 126.66 339.757 126.579C339.42 126.498 339.082 126.414 338.745 126.326C338.408 126.231 338.096 126.106 337.81 125.952C337.531 125.798 337.304 125.596 337.128 125.347C336.959 125.09 336.875 124.757 336.875 124.346C336.875 123.965 336.974 123.616 337.172 123.301C337.377 122.978 337.689 122.722 338.107 122.531C338.525 122.333 339.06 122.234 339.713 122.234C340.146 122.234 340.575 122.296 341 122.421C341.425 122.538 341.792 122.703 342.1 122.916L341.825 123.565C341.495 123.345 341.143 123.184 340.769 123.081C340.402 122.978 340.047 122.927 339.702 122.927C339.24 122.927 338.859 122.989 338.558 123.114C338.257 123.239 338.034 123.407 337.887 123.62C337.748 123.825 337.678 124.06 337.678 124.324C337.678 124.625 337.762 124.867 337.931 125.05C338.107 125.233 338.334 125.376 338.613 125.479C338.899 125.582 339.211 125.673 339.548 125.754C339.885 125.835 340.219 125.923 340.549 126.018C340.886 126.113 341.194 126.238 341.473 126.392C341.759 126.539 341.986 126.737 342.155 126.986C342.331 127.235 342.419 127.562 342.419 127.965C342.419 128.339 342.316 128.687 342.111 129.01C341.906 129.325 341.59 129.582 341.165 129.78C340.747 129.971 340.208 130.066 339.548 130.066ZM344.745 130V122.63L345.097 123.004H342.93V122.3H345.537V130H344.745ZM347.422 131.606L347.906 129.571L347.994 130.044C347.825 130.044 347.682 129.989 347.565 129.879C347.455 129.769 347.4 129.626 347.4 129.45C347.4 129.274 347.455 129.131 347.565 129.021C347.682 128.911 347.821 128.856 347.983 128.856C348.151 128.856 348.287 128.915 348.39 129.032C348.5 129.149 348.555 129.289 348.555 129.45C348.555 129.509 348.551 129.567 348.544 129.626C348.536 129.685 348.522 129.751 348.5 129.824C348.478 129.897 348.448 129.985 348.412 130.088L347.95 131.606H347.422ZM352.107 122.234C352.789 122.234 353.364 122.388 353.834 122.696C354.303 122.997 354.659 123.433 354.901 124.005C355.143 124.577 355.264 125.27 355.264 126.084C355.264 126.949 355.113 127.679 354.813 128.273C354.519 128.867 354.109 129.314 353.581 129.615C353.053 129.916 352.44 130.066 351.744 130.066C351.399 130.066 351.069 130.033 350.754 129.967C350.446 129.901 350.167 129.795 349.918 129.648L350.237 129.01C350.435 129.142 350.662 129.237 350.919 129.296C351.183 129.347 351.454 129.373 351.733 129.373C352.561 129.373 353.221 129.109 353.713 128.581C354.211 128.053 354.461 127.265 354.461 126.216C354.461 126.047 354.45 125.846 354.428 125.611C354.413 125.376 354.373 125.142 354.307 124.907L354.582 125.116C354.508 125.497 354.351 125.824 354.109 126.095C353.874 126.359 353.581 126.561 353.229 126.7C352.884 126.839 352.499 126.909 352.074 126.909C351.568 126.909 351.117 126.814 350.721 126.623C350.332 126.432 350.028 126.165 349.808 125.82C349.588 125.475 349.478 125.068 349.478 124.599C349.478 124.115 349.591 123.697 349.819 123.345C350.046 122.993 350.358 122.722 350.754 122.531C351.157 122.333 351.608 122.234 352.107 122.234ZM352.14 122.905C351.773 122.905 351.447 122.975 351.161 123.114C350.882 123.246 350.662 123.437 350.501 123.686C350.339 123.935 350.259 124.232 350.259 124.577C350.259 125.083 350.431 125.486 350.776 125.787C351.128 126.088 351.601 126.238 352.195 126.238C352.591 126.238 352.935 126.165 353.229 126.018C353.529 125.871 353.76 125.67 353.922 125.413C354.09 125.156 354.175 124.87 354.175 124.555C354.175 124.269 354.098 124.001 353.944 123.752C353.79 123.503 353.562 123.301 353.262 123.147C352.961 122.986 352.587 122.905 352.14 122.905ZM357.754 130V122.63L358.106 123.004H355.939V122.3H358.546V130H357.754ZM363.312 130.066C362.696 130.066 362.165 129.978 361.717 129.802C361.277 129.626 360.936 129.373 360.694 129.043C360.46 128.706 360.342 128.31 360.342 127.855C360.342 127.415 360.456 127.041 360.683 126.733C360.918 126.418 361.255 126.176 361.695 126.007C362.143 125.838 362.682 125.754 363.312 125.754C363.936 125.754 364.471 125.838 364.918 126.007C365.366 126.176 365.707 126.418 365.941 126.733C366.183 127.041 366.304 127.415 366.304 127.855C366.304 128.31 366.183 128.706 365.941 129.043C365.699 129.373 365.355 129.626 364.907 129.802C364.46 129.978 363.928 130.066 363.312 130.066ZM363.312 129.395C363.994 129.395 364.526 129.256 364.907 128.977C365.296 128.698 365.49 128.321 365.49 127.844C365.49 127.367 365.296 126.993 364.907 126.722C364.526 126.443 363.994 126.304 363.312 126.304C362.63 126.304 362.099 126.443 361.717 126.722C361.336 126.993 361.145 127.367 361.145 127.844C361.145 128.321 361.336 128.698 361.717 128.977C362.099 129.256 362.63 129.395 363.312 129.395ZM363.312 126.205C362.74 126.205 362.253 126.128 361.849 125.974C361.453 125.82 361.149 125.6 360.936 125.314C360.724 125.021 360.617 124.672 360.617 124.269C360.617 123.844 360.727 123.481 360.947 123.18C361.175 122.872 361.49 122.637 361.893 122.476C362.297 122.315 362.77 122.234 363.312 122.234C363.855 122.234 364.328 122.315 364.731 122.476C365.142 122.637 365.461 122.872 365.688 123.18C365.916 123.481 366.029 123.844 366.029 124.269C366.029 124.672 365.923 125.021 365.71 125.314C365.498 125.6 365.186 125.82 364.775 125.974C364.372 126.128 363.884 126.205 363.312 126.205ZM363.312 125.677C363.914 125.677 364.383 125.552 364.72 125.303C365.058 125.054 365.226 124.72 365.226 124.302C365.226 123.862 365.05 123.521 364.698 123.279C364.354 123.03 363.892 122.905 363.312 122.905C362.733 122.905 362.271 123.03 361.926 123.279C361.582 123.521 361.409 123.858 361.409 124.291C361.409 124.716 361.574 125.054 361.904 125.303C362.242 125.552 362.711 125.677 363.312 125.677Z" fill="white"/>
<path d="M339.188 176.32V165.98H339.738V176.32H339.188ZM339.419 175.066C338.847 175.066 338.297 174.974 337.769 174.791C337.248 174.6 336.845 174.358 336.559 174.065L336.878 173.438C337.149 173.702 337.512 173.926 337.967 174.109C338.429 174.285 338.913 174.373 339.419 174.373C339.903 174.373 340.295 174.314 340.596 174.197C340.904 174.072 341.128 173.907 341.267 173.702C341.414 173.497 341.487 173.269 341.487 173.02C341.487 172.719 341.399 172.477 341.223 172.294C341.054 172.111 340.831 171.968 340.552 171.865C340.273 171.755 339.965 171.66 339.628 171.579C339.291 171.498 338.953 171.414 338.616 171.326C338.279 171.231 337.967 171.106 337.681 170.952C337.402 170.798 337.175 170.596 336.999 170.347C336.83 170.09 336.746 169.757 336.746 169.346C336.746 168.965 336.845 168.616 337.043 168.301C337.248 167.978 337.56 167.722 337.978 167.531C338.396 167.333 338.931 167.234 339.584 167.234C340.017 167.234 340.446 167.296 340.871 167.421C341.296 167.538 341.663 167.703 341.971 167.916L341.696 168.565C341.366 168.345 341.014 168.184 340.64 168.081C340.273 167.978 339.918 167.927 339.573 167.927C339.111 167.927 338.73 167.989 338.429 168.114C338.128 168.239 337.905 168.407 337.758 168.62C337.619 168.825 337.549 169.06 337.549 169.324C337.549 169.625 337.633 169.867 337.802 170.05C337.978 170.233 338.205 170.376 338.484 170.479C338.77 170.582 339.082 170.673 339.419 170.754C339.756 170.835 340.09 170.923 340.42 171.018C340.757 171.113 341.065 171.238 341.344 171.392C341.63 171.539 341.857 171.737 342.026 171.986C342.202 172.235 342.29 172.562 342.29 172.965C342.29 173.339 342.187 173.687 341.982 174.01C341.777 174.325 341.461 174.582 341.036 174.78C340.618 174.971 340.079 175.066 339.419 175.066ZM344.616 175V167.63L344.968 168.004H342.801V167.3H345.408V175H344.616ZM347.293 176.606L347.777 174.571L347.865 175.044C347.696 175.044 347.553 174.989 347.436 174.879C347.326 174.769 347.271 174.626 347.271 174.45C347.271 174.274 347.326 174.131 347.436 174.021C347.553 173.911 347.692 173.856 347.854 173.856C348.022 173.856 348.158 173.915 348.261 174.032C348.371 174.149 348.426 174.289 348.426 174.45C348.426 174.509 348.422 174.567 348.415 174.626C348.407 174.685 348.393 174.751 348.371 174.824C348.349 174.897 348.319 174.985 348.283 175.088L347.821 176.606H347.293ZM351.978 167.234C352.66 167.234 353.235 167.388 353.705 167.696C354.174 167.997 354.53 168.433 354.772 169.005C355.014 169.577 355.135 170.27 355.135 171.084C355.135 171.949 354.984 172.679 354.684 173.273C354.39 173.867 353.98 174.314 353.452 174.615C352.924 174.916 352.311 175.066 351.615 175.066C351.27 175.066 350.94 175.033 350.625 174.967C350.317 174.901 350.038 174.795 349.789 174.648L350.108 174.01C350.306 174.142 350.533 174.237 350.79 174.296C351.054 174.347 351.325 174.373 351.604 174.373C352.432 174.373 353.092 174.109 353.584 173.581C354.082 173.053 354.332 172.265 354.332 171.216C354.332 171.047 354.321 170.846 354.299 170.611C354.284 170.376 354.244 170.142 354.178 169.907L354.453 170.116C354.379 170.497 354.222 170.824 353.98 171.095C353.745 171.359 353.452 171.561 353.1 171.7C352.755 171.839 352.37 171.909 351.945 171.909C351.439 171.909 350.988 171.814 350.592 171.623C350.203 171.432 349.899 171.165 349.679 170.82C349.459 170.475 349.349 170.068 349.349 169.599C349.349 169.115 349.462 168.697 349.69 168.345C349.917 167.993 350.229 167.722 350.625 167.531C351.028 167.333 351.479 167.234 351.978 167.234ZM352.011 167.905C351.644 167.905 351.318 167.975 351.032 168.114C350.753 168.246 350.533 168.437 350.372 168.686C350.21 168.935 350.13 169.232 350.13 169.577C350.13 170.083 350.302 170.486 350.647 170.787C350.999 171.088 351.472 171.238 352.066 171.238C352.462 171.238 352.806 171.165 353.1 171.018C353.4 170.871 353.631 170.67 353.793 170.413C353.961 170.156 354.046 169.87 354.046 169.555C354.046 169.269 353.969 169.001 353.815 168.752C353.661 168.503 353.433 168.301 353.133 168.147C352.832 167.986 352.458 167.905 352.011 167.905ZM357.625 175V167.63L357.977 168.004H355.81V167.3H358.417V175H357.625ZM360.126 172.976V172.404L364.207 167.3H365.087L361.039 172.404L360.61 172.272H366.803V172.976H360.126ZM364.471 175V172.976L364.493 172.272V170.49H365.263V175H364.471Z" fill="white"/>
<path d="M337.818 221.32V210.98H338.368V221.32H337.818ZM338.049 220.066C337.477 220.066 336.927 219.974 336.399 219.791C335.879 219.6 335.475 219.358 335.189 219.065L335.508 218.438C335.78 218.702 336.143 218.926 336.597 219.109C337.059 219.285 337.543 219.373 338.049 219.373C338.533 219.373 338.926 219.314 339.226 219.197C339.534 219.072 339.758 218.907 339.897 218.702C340.044 218.497 340.117 218.269 340.117 218.02C340.117 217.719 340.029 217.477 339.853 217.294C339.685 217.111 339.461 216.968 339.182 216.865C338.904 216.755 338.596 216.66 338.258 216.579C337.921 216.498 337.584 216.414 337.246 216.326C336.909 216.231 336.597 216.106 336.311 215.952C336.033 215.798 335.805 215.596 335.629 215.347C335.461 215.09 335.376 214.757 335.376 214.346C335.376 213.965 335.475 213.616 335.673 213.301C335.879 212.978 336.19 212.722 336.608 212.531C337.026 212.333 337.562 212.234 338.214 212.234C338.647 212.234 339.076 212.296 339.501 212.421C339.927 212.538 340.293 212.703 340.601 212.916L340.326 213.565C339.996 213.345 339.644 213.184 339.27 213.081C338.904 212.978 338.548 212.927 338.203 212.927C337.741 212.927 337.36 212.989 337.059 213.114C336.759 213.239 336.535 213.407 336.388 213.62C336.249 213.825 336.179 214.06 336.179 214.324C336.179 214.625 336.264 214.867 336.432 215.05C336.608 215.233 336.836 215.376 337.114 215.479C337.4 215.582 337.712 215.673 338.049 215.754C338.387 215.835 338.72 215.923 339.05 216.018C339.388 216.113 339.696 216.238 339.974 216.392C340.26 216.539 340.488 216.737 340.656 216.986C340.832 217.235 340.92 217.562 340.92 217.965C340.92 218.339 340.818 218.687 340.612 219.01C340.407 219.325 340.092 219.582 339.666 219.78C339.248 219.971 338.709 220.066 338.049 220.066ZM343.247 220V212.63L343.599 213.004H341.432V212.3H344.039V220H343.247ZM345.923 221.606L346.407 219.571L346.495 220.044C346.326 220.044 346.183 219.989 346.066 219.879C345.956 219.769 345.901 219.626 345.901 219.45C345.901 219.274 345.956 219.131 346.066 219.021C346.183 218.911 346.323 218.856 346.484 218.856C346.653 218.856 346.788 218.915 346.891 219.032C347.001 219.149 347.056 219.289 347.056 219.45C347.056 219.509 347.052 219.567 347.045 219.626C347.038 219.685 347.023 219.751 347.001 219.824C346.979 219.897 346.95 219.985 346.913 220.088L346.451 221.606H345.923ZM350.608 212.234C351.29 212.234 351.866 212.388 352.335 212.696C352.805 212.997 353.16 213.433 353.402 214.005C353.644 214.577 353.765 215.27 353.765 216.084C353.765 216.949 353.615 217.679 353.314 218.273C353.021 218.867 352.61 219.314 352.082 219.615C351.554 219.916 350.942 220.066 350.245 220.066C349.901 220.066 349.571 220.033 349.255 219.967C348.947 219.901 348.669 219.795 348.419 219.648L348.738 219.01C348.936 219.142 349.164 219.237 349.42 219.296C349.684 219.347 349.956 219.373 350.234 219.373C351.063 219.373 351.723 219.109 352.214 218.581C352.713 218.053 352.962 217.265 352.962 216.216C352.962 216.047 352.951 215.846 352.929 215.611C352.915 215.376 352.874 215.142 352.808 214.907L353.083 215.116C353.01 215.497 352.852 215.824 352.61 216.095C352.376 216.359 352.082 216.561 351.73 216.7C351.386 216.839 351.001 216.909 350.575 216.909C350.069 216.909 349.618 216.814 349.222 216.623C348.834 216.432 348.529 216.165 348.309 215.82C348.089 215.475 347.979 215.068 347.979 214.599C347.979 214.115 348.093 213.697 348.32 213.345C348.548 212.993 348.859 212.722 349.255 212.531C349.659 212.333 350.11 212.234 350.608 212.234ZM350.641 212.905C350.275 212.905 349.948 212.975 349.662 213.114C349.384 213.246 349.164 213.437 349.002 213.686C348.841 213.935 348.76 214.232 348.76 214.577C348.76 215.083 348.933 215.486 349.277 215.787C349.629 216.088 350.102 216.238 350.696 216.238C351.092 216.238 351.437 216.165 351.73 216.018C352.031 215.871 352.262 215.67 352.423 215.413C352.592 215.156 352.676 214.87 352.676 214.555C352.676 214.269 352.599 214.001 352.445 213.752C352.291 213.503 352.064 213.301 351.763 213.147C351.463 212.986 351.089 212.905 350.641 212.905ZM357.982 220.066C357.388 220.066 356.86 219.912 356.398 219.604C355.936 219.289 355.573 218.841 355.309 218.262C355.045 217.675 354.913 216.971 354.913 216.15C354.913 215.329 355.045 214.628 355.309 214.049C355.573 213.462 355.936 213.015 356.398 212.707C356.86 212.392 357.388 212.234 357.982 212.234C358.576 212.234 359.104 212.392 359.566 212.707C360.028 213.015 360.391 213.462 360.655 214.049C360.927 214.628 361.062 215.329 361.062 216.15C361.062 216.971 360.927 217.675 360.655 218.262C360.391 218.841 360.028 219.289 359.566 219.604C359.104 219.912 358.576 220.066 357.982 220.066ZM357.982 219.34C358.437 219.34 358.833 219.219 359.17 218.977C359.508 218.728 359.772 218.368 359.962 217.899C360.153 217.422 360.248 216.839 360.248 216.15C360.248 215.461 360.153 214.881 359.962 214.412C359.772 213.935 359.508 213.576 359.17 213.334C358.833 213.085 358.437 212.96 357.982 212.96C357.542 212.96 357.15 213.085 356.805 213.334C356.461 213.576 356.193 213.935 356.002 214.412C355.812 214.881 355.716 215.461 355.716 216.15C355.716 216.839 355.812 217.422 356.002 217.899C356.193 218.368 356.461 218.728 356.805 218.977C357.15 219.219 357.542 219.34 357.982 219.34ZM364.595 212.234C365.277 212.234 365.852 212.388 366.322 212.696C366.791 212.997 367.147 213.433 367.389 214.005C367.631 214.577 367.752 215.27 367.752 216.084C367.752 216.949 367.601 217.679 367.301 218.273C367.007 218.867 366.597 219.314 366.069 219.615C365.541 219.916 364.928 220.066 364.232 220.066C363.887 220.066 363.557 220.033 363.242 219.967C362.934 219.901 362.655 219.795 362.406 219.648L362.725 219.01C362.923 219.142 363.15 219.237 363.407 219.296C363.671 219.347 363.942 219.373 364.221 219.373C365.049 219.373 365.709 219.109 366.201 218.581C366.699 218.053 366.949 217.265 366.949 216.216C366.949 216.047 366.938 215.846 366.916 215.611C366.901 215.376 366.861 215.142 366.795 214.907L367.07 215.116C366.996 215.497 366.839 215.824 366.597 216.095C366.362 216.359 366.069 216.561 365.717 216.7C365.372 216.839 364.987 216.909 364.562 216.909C364.056 216.909 363.605 216.814 363.209 216.623C362.82 216.432 362.516 216.165 362.296 215.82C362.076 215.475 361.966 215.068 361.966 214.599C361.966 214.115 362.079 213.697 362.307 213.345C362.534 212.993 362.846 212.722 363.242 212.531C363.645 212.333 364.096 212.234 364.595 212.234ZM364.628 212.905C364.261 212.905 363.935 212.975 363.649 213.114C363.37 213.246 363.15 213.437 362.989 213.686C362.827 213.935 362.747 214.232 362.747 214.577C362.747 215.083 362.919 215.486 363.264 215.787C363.616 216.088 364.089 216.238 364.683 216.238C365.079 216.238 365.423 216.165 365.717 216.018C366.017 215.871 366.248 215.67 366.41 215.413C366.578 215.156 366.663 214.87 366.663 214.555C366.663 214.269 366.586 214.001 366.432 213.752C366.278 213.503 366.05 213.301 365.75 213.147C365.449 212.986 365.075 212.905 364.628 212.905Z" fill="white"/>
<path d="M148.403 26.156C147.771 26.156 147.142 26.0737 146.518 25.909C145.894 25.7357 145.366 25.493 144.932 25.181L145.751 23.569C146.098 23.8203 146.501 24.0197 146.96 24.167C147.42 24.3143 147.883 24.388 148.351 24.388C148.88 24.388 149.296 24.284 149.599 24.076C149.903 23.868 150.054 23.582 150.054 23.218C150.054 22.8713 149.92 22.5983 149.651 22.399C149.383 22.1997 148.949 22.1 148.351 22.1H147.389V20.709L149.924 17.836L150.158 18.59H145.387V16.9H151.757V18.265L149.235 21.138L148.169 20.527H148.78C149.898 20.527 150.743 20.7783 151.315 21.281C151.887 21.7837 152.173 22.4293 152.173 23.218C152.173 23.7293 152.039 24.2103 151.77 24.661C151.502 25.103 151.09 25.4627 150.535 25.74C149.981 26.0173 149.27 26.156 148.403 26.156ZM153.718 26V16.9H155.46L159.334 23.322H158.411L162.22 16.9H163.949L163.975 26H161.999L161.986 19.929H162.35L159.308 25.038H158.359L155.252 19.929H155.694V26H153.718Z" fill="white"/>
<path d="M211.973 26V17.68L212.883 18.59H210.153V16.9H214.079V26H211.973ZM218.494 26V22.282L218.975 23.556L214.971 16.9H217.207L220.275 22.009H218.988L222.069 16.9H224.136L220.132 23.556L220.6 22.282V26H218.494Z" fill="white"/>
<path d="M274.282 26.156C273.65 26.156 273.021 26.0737 272.397 25.909C271.773 25.7357 271.245 25.493 270.811 25.181L271.63 23.569C271.977 23.8203 272.38 24.0197 272.839 24.167C273.299 24.3143 273.762 24.388 274.23 24.388C274.759 24.388 275.175 24.284 275.478 24.076C275.782 23.868 275.933 23.582 275.933 23.218C275.933 22.8713 275.799 22.5983 275.53 22.399C275.262 22.1997 274.828 22.1 274.23 22.1H273.268V20.709L275.803 17.836L276.037 18.59H271.266V16.9H277.636V18.265L275.114 21.138L274.048 20.527H274.659C275.777 20.527 276.622 20.7783 277.194 21.281C277.766 21.7837 278.052 22.4293 278.052 23.218C278.052 23.7293 277.918 24.2103 277.649 24.661C277.381 25.103 276.969 25.4627 276.414 25.74C275.86 26.0173 275.149 26.156 274.282 26.156ZM281.732 26V22.282L282.213 23.556L278.209 16.9H280.445L283.513 22.009H282.226L285.307 16.9H287.374L283.37 23.556L283.838 22.282V26H281.732Z" fill="white"/>
<path d="M336.387 26.156C335.754 26.156 335.126 26.0737 334.502 25.909C333.887 25.7357 333.358 25.493 332.916 25.181L333.748 23.569C334.095 23.8203 334.493 24.0197 334.944 24.167C335.403 24.3143 335.867 24.388 336.335 24.388C336.864 24.388 337.28 24.284 337.583 24.076C337.886 23.868 338.038 23.5777 338.038 23.205C338.038 22.971 337.977 22.763 337.856 22.581C337.735 22.399 337.518 22.2603 337.206 22.165C336.903 22.0697 336.474 22.022 335.919 22.022H333.592L334.06 16.9H339.611V18.59H334.814L335.906 17.628L335.581 21.281L334.489 20.319H336.413C337.314 20.319 338.038 20.4447 338.584 20.696C339.139 20.9387 339.542 21.2723 339.793 21.697C340.044 22.1217 340.17 22.6027 340.17 23.14C340.17 23.6773 340.036 24.1757 339.767 24.635C339.498 25.0857 339.082 25.454 338.519 25.74C337.964 26.0173 337.254 26.156 336.387 26.156ZM343.77 26V22.282L344.251 23.556L340.247 16.9H342.483L345.551 22.009H344.264L347.345 16.9H349.412L345.408 23.556L345.876 22.282V26H343.77Z" fill="white"/>
<line x1="4.37114e-08" y1="0.5" x2="375" y2="0.500033" stroke="#34363A"/>
<line x1="4.37114e-08" y1="41.5" x2="375" y2="41.5" stroke="#34363A"/>
<line x1="4.37114e-08" y1="260.5" x2="375" y2="260.5" stroke="#34363A"/>
<line opacity="0.06" x1="4.37114e-08" y1="216.5" x2="327" y2="216.5" stroke="white"/>
<line opacity="0.06" x1="4.37114e-08" y1="171.5" x2="327" y2="171.5" stroke="white"/>
<line opacity="0.06" x1="4.37114e-08" y1="126.5" x2="327" y2="126.5" stroke="white"/>
<line opacity="0.06" x1="4.37114e-08" y1="81.5" x2="327" y2="81.5" stroke="white"/>
<line opacity="0.06" x1="46.5" y1="260" x2="46.5" y2="42" stroke="white"/>
<line opacity="0.06" x1="140.5" y1="260" x2="140.5" y2="42" stroke="white"/>
<line opacity="0.06" x1="234.5" y1="260" x2="234.5" y2="42" stroke="white"/>
<line opacity="0.06" x1="327.5" y1="260" x2="327.5" y2="42" stroke="white"/>
<path opacity="0.5" d="M0 122.5L1.6158 128.5L3 130.5L6.5 126.5L10.5 106L12.5 105.5L15 101L17 104L20 106.5L21 109L23 122.5L25.5 122V120.5L28 119L29 116H30L31 112.5L32 108.844L34 118L36 114.5L38 119L39.5 115L40.2633 113L41 107.5L42.5 102.5L45 109.5L46 117L48.5 115L50.5 112.5L53 111L54.5 107.5L57 111.5L60 109L61.5 105L63.5 109.5L65.5 105L69.5 112.5L72 117.5L78.5 103.5L82 107L87 106L89 101.5L91 104L92.5 94L95 105L97 102L102 109L107.5 108L108.5 106L110.5 101L115.5 105.5L120.5 104L122.5 97L125 99.5L126.5 92L131 97L137.5 93L141.5 78.5L144 73L149 74L156 80.5L159 79L162 76.5L163.5 74L165.5 75L167.5 78L173.5 73.5L177 81L179.5 72L188.5 82.5L194.5 70.5L196 74L201.5 73.5L204.5 75.5L207 73L214.5 79.5L220 75L221.5 69L226.5 81.5L229.5 82L234.5 89L236.5 84.5L239.5 92.5L242.5 90L249 93.5L251.5 91L254 93.5L261.5 89.5L264 85L266.696 89L271 85L274.5 78.5L280.5 86L284.5 91.5L292.5 92L296 91.5L298 89.5L303 88.5L306.5 81.5L310.5 87L312.5 93.5L315 94L319.5 89.5L323.5 94L325.5 90.5V87L327 83V261H0V122.5Z" fill="url(#paint0_linear_61_13459)"/>
<path d="M0 122.5L1.6158 128.5L3 130.5L6.5 126.5L10.5 106L12.5 105.5L15 101L17 104L20 106.5L21 109L23 122.5L25.5 122V120.5L28 119L29 116H30L31 112.5L32 108.844L34 118L36 114.5L38 119L39.5 115L40.2633 113L41 107.5L42.5 102.5L45 109.5L46 117L48.5 115L50.5 112.5L53 111L54.5 107.5L57 111.5L60 109L61.5 105L63.5 109.5L65.5 105L69.5 112.5L72 117.5L78.5 103.5L82 107L87 106L89 101.5L91 104L92.5 94L95 105L97 102L102 109L107.5 108L108.5 106L110.5 101L115.5 105.5L120.5 104L122.5 97L125 99.5L126.5 92L131 97L137.5 93L141.5 78.5L144 73L149 74L156 80.5L159 79L162 76.5L163.5 74L165.5 75L167.5 78L173.5 73.5L177 81L179.5 72L188.5 82.5L194.5 70.5L196 74L201.5 73.5L204.5 75.5L207 73L214.5 79.5L220 75L221.5 69L226.5 81.5L229.5 82L234.5 89L236.5 84.5L239.5 92.5L242.5 90L249 93.5L251.5 91L254 93.5L261.5 89.5L264 85L266.696 89L271 85L274.5 78.5L280.5 86L284.5 91.5L292.5 92L296 91.5L298 89.5L303 88.5L306.5 81.5L310.5 87L312.5 93.5L315 94L319.5 89.5L323.5 94L325.5 90.5V87L327 83" stroke="#1464F4" stroke-width="3"/>
</g>
<defs>
<filter id="filter0_d_61_13459" x="21.1758" y="15.9004" width="19.2305" height="13.0996" filterUnits="userSpaceOnUse" color-interpolation-filters="sRGB">
<feFlood flood-opacity="0" result="BackgroundImageFix"/>
<feColorMatrix in="SourceAlpha" type="matrix" values="0 0 0 0 0 0 0 0 0 0 0 0 0 0 0 0 0 0 127 0" result="hardAlpha"/>
<feOffset dy="1"/>
<feGaussianBlur stdDeviation="1"/>
<feColorMatrix type="matrix" values="0 0 0 0 0 0 0 0 0 0 0 0 0 0 0 0 0 0 0.16 0"/>
<feBlend mode="normal" in2="BackgroundImageFix" result="effect1_dropShadow_61_13459"/>
<feBlend mode="normal" in="SourceGraphic" in2="effect1_dropShadow_61_13459" result="shape"/>
</filter>
<linearGradient id="paint0_linear_61_13459" x1="163.936" y1="111" x2="163.936" y2="261" gradientUnits="userSpaceOnUse">
<stop stop-color="#367EFF" stop-opacity="0.8"/>
<stop offset="1" stop-color="#367EFF" stop-opacity="0"/>
</linearGradient>
<clipPath id="clip0_61_13459">
<rect width="375" height="293" fill="white"/>
</clipPath>
</defs>
</svg>
