<svg width="375" height="684" viewBox="0 0 375 684" fill="none" xmlns="http://www.w3.org/2000/svg">
<g clip-path="url(#clip0_66_13589)">
<rect width="375" height="684" fill="white"/>
<rect y="-32" width="375" height="716" fill="#FFF5DD"/>
<rect width="375" height="660" fill="url(#paint0_radial_66_13589)"/>
<g style="mix-blend-mode:soft-light">
<path fillRule="evenodd" clipRule="evenodd" d="M-5.33786 46H-61V54.5973L182.701 289.26L-5.33786 46ZM38.642 46H82.1797L184.025 288.268L38.642 46ZM152.501 46H116.459L185.678 287.717L152.501 46ZM187.331 287.607L217.752 46H183.143L187.331 287.607ZM-61 155.892V104.97L181.599 290.473L-61 155.892ZM-61 193.367V231.614L180.827 292.016L-61 193.367ZM-61 297.857V263.248L180.607 293.669L-61 297.857ZM-61 328.5V364.542L180.717 295.323L-61 328.5ZM-61 442.359V398.822L181.268 296.976L-61 442.359ZM-61 485.897V542H-53.1742L182.26 298.299L-61 485.897ZM48.8923 542H-2.14045L183.473 299.401L48.8923 542ZM86.3671 541.999H124.614L185.016 300.172L86.3671 541.999ZM190.857 541.999H156.248L186.669 300.393L190.857 541.999ZM221.5 542H257.542L188.323 300.283L221.5 542ZM335.359 542H291.822L189.976 299.732L335.359 542ZM435 534.505L191.299 298.74L380.109 542H435V534.505ZM435 482.48L192.401 297.527L435 432.108V482.48ZM193.172 295.984L434.999 394.632V356.385L193.172 295.984ZM434.999 324.752L193.393 294.331L434.999 290.143V324.752ZM435 259.501V223.459L193.283 292.678L435 259.501ZM435 145.642V189.18L192.732 291.025L435 145.642ZM435 101.552V46H427.284L191.74 289.701L435 101.552ZM325.108 46H376.251L190.527 288.599L325.108 46ZM287.632 46H249.385L188.984 287.827L287.632 46Z" fill="url(#paint1_radial_66_13589)"/>
</g>
<path d="M125 480.5C125 482.433 123.433 484 121.5 484C119.567 484 118 482.433 118 480.5C118 478.567 119.567 477 121.5 477C123.433 477 125 478.567 125 480.5Z" fill="white"/>
</g>
<defs>
<radialGradient id="paint0_radial_66_13589" cx="0" cy="0" r="1" gradientUnits="userSpaceOnUse" gradientTransform="translate(187.5 330) rotate(90) scale(251.275 142.77)">
<stop stop-color="white"/>
<stop offset="1" stop-color="white" stop-opacity="0"/>
</radialGradient>
<radialGradient id="paint1_radial_66_13589" cx="0" cy="0" r="1" gradientUnits="userSpaceOnUse" gradientTransform="translate(187 294) rotate(90) scale(273.902 248)">
<stop stop-color="white"/>
<stop offset="1" stop-color="white" stop-opacity="0"/>
</radialGradient>
<clipPath id="clip0_66_13589">
<rect width="375" height="684" fill="white"/>
</clipPath>
</defs>
</svg>
